<svg xmlns="http://www.w3.org/2000/svg" xmlns:xlink="http://www.w3.org/1999/xlink" width="1920" viewBox="0 0 1440 809.999993" height="1080" preserveAspectRatio="xMidYMid meet"><defs><filter x="0%" y="0%" width="100%" height="100%" id="2f511f409c"></filter><filter x="0%" y="0%" width="100%" height="100%" id="ff9cd5d311"></filter><mask id="97c5f371a2"><g filter="url(#2f511f409c)"><rect x="-144" width="1728" fill="#000000" y="-80.999999" height="971.999992" fill-opacity="0.84"></rect></g></mask><clipPath id="7027bc41c4"><path d="M 0 72.78125 L 1440 72.78125 L 1440 495.03125 L 0 495.03125 Z M 0 72.78125 " clip-rule="nonzero"></path></clipPath><image x="0" y="0" width="5000" id="9ba5a7a215" height="1890" preserveAspectRatio="xMidYMid meet"></image><mask id="e564639280"><g filter="url(#2f511f409c)"><g filter="url(#ff9cd5d311)" transform="matrix(-0.2997, 0, 0, -0.299206, 1469.395012, 566.685322)"><image x="0" y="0" width="5000" height="1890" preserveAspectRatio="xMidYMid meet"></image></g></g></mask><image x="0" y="0" width="5000" id="ae899611e6" height="1890" preserveAspectRatio="xMidYMid meet"></image><clipPath id="6e0671a5b9"><rect x="0" width="1440" y="0" height="567"></rect></clipPath><clipPath id="b497c65a3c"><path d="M 1106 74 L 1440 74 L 1440 361 L 1106 361 Z M 1106 74 " clip-rule="nonzero"></path></clipPath><clipPath id="1e339f29f0"><path d="M 1071.691406 90.902344 L 1348.121094 -9.210938 L 1448.238281 267.214844 L 1171.808594 367.332031 Z M 1071.691406 90.902344 " clip-rule="nonzero"></path></clipPath><clipPath id="130f6d3419"><path d="M 1071.691406 90.902344 L 1348.121094 -9.210938 L 1448.238281 267.214844 L 1171.808594 367.332031 Z M 1071.691406 90.902344 " clip-rule="nonzero"></path></clipPath><clipPath id="bbdf683f16"><path d="M 1120 107 L 1374 107 L 1374 342 L 1120 342 Z M 1120 107 " clip-rule="nonzero"></path></clipPath><clipPath id="4a05b368f0"><path d="M 1071.691406 90.902344 L 1348.121094 -9.210938 L 1448.238281 267.214844 L 1171.808594 367.332031 Z M 1071.691406 90.902344 " clip-rule="nonzero"></path></clipPath><clipPath id="3dc1b682ac"><path d="M 1071.691406 90.902344 L 1348.121094 -9.210938 L 1448.238281 267.214844 L 1171.808594 367.332031 Z M 1071.691406 90.902344 " clip-rule="nonzero"></path></clipPath><clipPath id="d97e33e43e"><path d="M 1334 108 L 1375 108 L 1375 150 L 1334 150 Z M 1334 108 " clip-rule="nonzero"></path></clipPath><clipPath id="fd4b66cd87"><path d="M 1071.691406 90.902344 L 1348.121094 -9.210938 L 1448.238281 267.214844 L 1171.808594 367.332031 Z M 1071.691406 90.902344 " clip-rule="nonzero"></path></clipPath><clipPath id="6eeca4b53a"><path d="M 1071.691406 90.902344 L 1348.121094 -9.210938 L 1448.238281 267.214844 L 1171.808594 367.332031 Z M 1071.691406 90.902344 " clip-rule="nonzero"></path></clipPath><clipPath id="ac9d39ec1c"><path d="M 1355 165 L 1396 165 L 1396 207 L 1355 207 Z M 1355 165 " clip-rule="nonzero"></path></clipPath><clipPath id="1ce1b08af0"><path d="M 1071.691406 90.902344 L 1348.121094 -9.210938 L 1448.238281 267.214844 L 1171.808594 367.332031 Z M 1071.691406 90.902344 " clip-rule="nonzero"></path></clipPath><clipPath id="21873ddfc0"><path d="M 1071.691406 90.902344 L 1348.121094 -9.210938 L 1448.238281 267.214844 L 1171.808594 367.332031 Z M 1071.691406 90.902344 " clip-rule="nonzero"></path></clipPath><clipPath id="fd2dcf364e"><path d="M 1140 16 L 1284 16 L 1284 128 L 1140 128 Z M 1140 16 " clip-rule="nonzero"></path></clipPath><clipPath id="80d9160c7e"><path d="M 1071.691406 90.902344 L 1348.121094 -9.210938 L 1448.238281 267.214844 L 1171.808594 367.332031 Z M 1071.691406 90.902344 " clip-rule="nonzero"></path></clipPath><clipPath id="8aae0d3abf"><path d="M 1071.691406 90.902344 L 1348.121094 -9.210938 L 1448.238281 267.214844 L 1171.808594 367.332031 Z M 1071.691406 90.902344 " clip-rule="nonzero"></path></clipPath><clipPath id="4543ed921e"><path d="M 1013 455 L 1423 455 L 1423 783 L 1013 783 Z M 1013 455 " clip-rule="nonzero"></path></clipPath><clipPath id="60cd08699e"><path d="M 1012.539062 538.023438 L 1370.402344 454.421875 L 1440.015625 752.398438 L 1082.152344 836 Z M 1012.539062 538.023438 " clip-rule="nonzero"></path></clipPath><clipPath id="fc2ba60193"><path d="M 1012.539062 538.023438 L 1370.402344 454.421875 L 1440.015625 752.398438 L 1082.152344 836 Z M 1012.539062 538.023438 " clip-rule="nonzero"></path></clipPath><clipPath id="63e157d546"><path d="M 1255 639 L 1368 639 L 1368 788 L 1255 788 Z M 1255 639 " clip-rule="nonzero"></path></clipPath><clipPath id="c555d101dd"><path d="M 1012.539062 538.023438 L 1370.402344 454.421875 L 1440.015625 752.398438 L 1082.152344 836 Z M 1012.539062 538.023438 " clip-rule="nonzero"></path></clipPath><clipPath id="f23f860d4b"><path d="M 1012.539062 538.023438 L 1370.402344 454.421875 L 1440.015625 752.398438 L 1082.152344 836 Z M 1012.539062 538.023438 " clip-rule="nonzero"></path></clipPath><clipPath id="c091bd299d"><path d="M 1283 673 L 1299 673 L 1299 688 L 1283 688 Z M 1283 673 " clip-rule="nonzero"></path></clipPath><clipPath id="1560c6ed80"><path d="M 1012.539062 538.023438 L 1370.402344 454.421875 L 1440.015625 752.398438 L 1082.152344 836 Z M 1012.539062 538.023438 " clip-rule="nonzero"></path></clipPath><clipPath id="9e116df613"><path d="M 1012.539062 538.023438 L 1370.402344 454.421875 L 1440.015625 752.398438 L 1082.152344 836 Z M 1012.539062 538.023438 " clip-rule="nonzero"></path></clipPath><clipPath id="9bf0532041"><path d="M 1289 697 L 1305 697 L 1305 712 L 1289 712 Z M 1289 697 " clip-rule="nonzero"></path></clipPath><clipPath id="00a8e67951"><path d="M 1012.539062 538.023438 L 1370.402344 454.421875 L 1440.015625 752.398438 L 1082.152344 836 Z M 1012.539062 538.023438 " clip-rule="nonzero"></path></clipPath><clipPath id="dffc23e6cd"><path d="M 1012.539062 538.023438 L 1370.402344 454.421875 L 1440.015625 752.398438 L 1082.152344 836 Z M 1012.539062 538.023438 " clip-rule="nonzero"></path></clipPath><clipPath id="064d6d60f9"><path d="M 1294 720 L 1310 720 L 1310 736 L 1294 736 Z M 1294 720 " clip-rule="nonzero"></path></clipPath><clipPath id="85cc37d787"><path d="M 1012.539062 538.023438 L 1370.402344 454.421875 L 1440.015625 752.398438 L 1082.152344 836 Z M 1012.539062 538.023438 " clip-rule="nonzero"></path></clipPath><clipPath id="11445d8979"><path d="M 1012.539062 538.023438 L 1370.402344 454.421875 L 1440.015625 752.398438 L 1082.152344 836 Z M 1012.539062 538.023438 " clip-rule="nonzero"></path></clipPath><clipPath id="0ad118851e"><path d="M 1318 715 L 1334 715 L 1334 731 L 1318 731 Z M 1318 715 " clip-rule="nonzero"></path></clipPath><clipPath id="b792bdff37"><path d="M 1012.539062 538.023438 L 1370.402344 454.421875 L 1440.015625 752.398438 L 1082.152344 836 Z M 1012.539062 538.023438 " clip-rule="nonzero"></path></clipPath><clipPath id="3c3b3cbc30"><path d="M 1012.539062 538.023438 L 1370.402344 454.421875 L 1440.015625 752.398438 L 1082.152344 836 Z M 1012.539062 538.023438 " clip-rule="nonzero"></path></clipPath><clipPath id="96f86448bd"><path d="M 1300 744 L 1316 744 L 1316 760 L 1300 760 Z M 1300 744 " clip-rule="nonzero"></path></clipPath><clipPath id="a7746509f0"><path d="M 1012.539062 538.023438 L 1370.402344 454.421875 L 1440.015625 752.398438 L 1082.152344 836 Z M 1012.539062 538.023438 " clip-rule="nonzero"></path></clipPath><clipPath id="43db259167"><path d="M 1012.539062 538.023438 L 1370.402344 454.421875 L 1440.015625 752.398438 L 1082.152344 836 Z M 1012.539062 538.023438 " clip-rule="nonzero"></path></clipPath><clipPath id="767a738cbc"><path d="M 1324 739 L 1340 739 L 1340 754 L 1324 754 Z M 1324 739 " clip-rule="nonzero"></path></clipPath><clipPath id="fe77177437"><path d="M 1012.539062 538.023438 L 1370.402344 454.421875 L 1440.015625 752.398438 L 1082.152344 836 Z M 1012.539062 538.023438 " clip-rule="nonzero"></path></clipPath><clipPath id="15f9e8f851"><path d="M 1012.539062 538.023438 L 1370.402344 454.421875 L 1440.015625 752.398438 L 1082.152344 836 Z M 1012.539062 538.023438 " clip-rule="nonzero"></path></clipPath><clipPath id="b92f63493f"><path d="M 1313 691 L 1328 691 L 1328 707 L 1313 707 Z M 1313 691 " clip-rule="nonzero"></path></clipPath><clipPath id="9db13c4fc8"><path d="M 1012.539062 538.023438 L 1370.402344 454.421875 L 1440.015625 752.398438 L 1082.152344 836 Z M 1012.539062 538.023438 " clip-rule="nonzero"></path></clipPath><clipPath id="5b77f810c0"><path d="M 1012.539062 538.023438 L 1370.402344 454.421875 L 1440.015625 752.398438 L 1082.152344 836 Z M 1012.539062 538.023438 " clip-rule="nonzero"></path></clipPath><clipPath id="3ab76347f5"><path d="M 1224 626 L 1257 626 L 1257 671 L 1224 671 Z M 1224 626 " clip-rule="nonzero"></path></clipPath><clipPath id="3af8945bee"><path d="M 1012.539062 538.023438 L 1370.402344 454.421875 L 1440.015625 752.398438 L 1082.152344 836 Z M 1012.539062 538.023438 " clip-rule="nonzero"></path></clipPath><clipPath id="0b969a5de4"><path d="M 1012.539062 538.023438 L 1370.402344 454.421875 L 1440.015625 752.398438 L 1082.152344 836 Z M 1012.539062 538.023438 " clip-rule="nonzero"></path></clipPath><clipPath id="a8af5b0c0c"><path d="M 1200 602 L 1251 602 L 1251 677 L 1200 677 Z M 1200 602 " clip-rule="nonzero"></path></clipPath><clipPath id="b196d2a766"><path d="M 1012.539062 538.023438 L 1370.402344 454.421875 L 1440.015625 752.398438 L 1082.152344 836 Z M 1012.539062 538.023438 " clip-rule="nonzero"></path></clipPath><clipPath id="5e0353c161"><path d="M 1012.539062 538.023438 L 1370.402344 454.421875 L 1440.015625 752.398438 L 1082.152344 836 Z M 1012.539062 538.023438 " clip-rule="nonzero"></path></clipPath><clipPath id="aa8cbf66c7"><path d="M 1175 578 L 1245 578 L 1245 682 L 1175 682 Z M 1175 578 " clip-rule="nonzero"></path></clipPath><clipPath id="7006360b4b"><path d="M 1012.539062 538.023438 L 1370.402344 454.421875 L 1440.015625 752.398438 L 1082.152344 836 Z M 1012.539062 538.023438 " clip-rule="nonzero"></path></clipPath><clipPath id="2fdb29c60a"><path d="M 1012.539062 538.023438 L 1370.402344 454.421875 L 1440.015625 752.398438 L 1082.152344 836 Z M 1012.539062 538.023438 " clip-rule="nonzero"></path></clipPath><clipPath id="c27c3d7e40"><path d="M 1080 720 L 1096 720 L 1096 736 L 1080 736 Z M 1080 720 " clip-rule="nonzero"></path></clipPath><clipPath id="32b4d41dce"><path d="M 1012.539062 538.023438 L 1370.402344 454.421875 L 1440.015625 752.398438 L 1082.152344 836 Z M 1012.539062 538.023438 " clip-rule="nonzero"></path></clipPath><clipPath id="29a13f9376"><path d="M 1012.539062 538.023438 L 1370.402344 454.421875 L 1440.015625 752.398438 L 1082.152344 836 Z M 1012.539062 538.023438 " clip-rule="nonzero"></path></clipPath><clipPath id="50b6bfb590"><path d="M 1104 714 L 1120 714 L 1120 730 L 1104 730 Z M 1104 714 " clip-rule="nonzero"></path></clipPath><clipPath id="31795bdbc7"><path d="M 1012.539062 538.023438 L 1370.402344 454.421875 L 1440.015625 752.398438 L 1082.152344 836 Z M 1012.539062 538.023438 " clip-rule="nonzero"></path></clipPath><clipPath id="2ead944d83"><path d="M 1012.539062 538.023438 L 1370.402344 454.421875 L 1440.015625 752.398438 L 1082.152344 836 Z M 1012.539062 538.023438 " clip-rule="nonzero"></path></clipPath><clipPath id="c9ec45d062"><path d="M 1128 709 L 1144 709 L 1144 725 L 1128 725 Z M 1128 709 " clip-rule="nonzero"></path></clipPath><clipPath id="6490275f8f"><path d="M 1012.539062 538.023438 L 1370.402344 454.421875 L 1440.015625 752.398438 L 1082.152344 836 Z M 1012.539062 538.023438 " clip-rule="nonzero"></path></clipPath><clipPath id="27d7ff0ca8"><path d="M 1012.539062 538.023438 L 1370.402344 454.421875 L 1440.015625 752.398438 L 1082.152344 836 Z M 1012.539062 538.023438 " clip-rule="nonzero"></path></clipPath><clipPath id="7d20789053"><path d="M 972 20 L 1100 20 L 1100 201 L 972 201 Z M 972 20 " clip-rule="nonzero"></path></clipPath><clipPath id="b65c9f6e8d"><path d="M 947.707031 -22.453125 L 1168.945312 22.445312 L 1124.050781 243.683594 L 902.808594 198.789062 Z M 947.707031 -22.453125 " clip-rule="nonzero"></path></clipPath><clipPath id="7b5004ab2d"><path d="M 947.707031 -22.453125 L 1168.945312 22.445312 L 1124.050781 243.683594 L 902.808594 198.789062 Z M 947.707031 -22.453125 " clip-rule="nonzero"></path></clipPath></defs><rect x="-144" width="1728" fill="#ffffff" y="-80.999999" height="971.999992" fill-opacity="1"></rect><rect x="-144" width="1728" fill="#000000" y="-80.999999" height="971.999992" fill-opacity="1"></rect><g mask="url(#97c5f371a2)"><g transform="matrix(1, 0, 0, 1, 0, 38)"><g clip-path="url(#6e0671a5b9)"><g clip-path="url(#7027bc41c4)"><g mask="url(#e564639280)"><g transform="matrix(-0.2997, 0, 0, -0.299206, 1469.395012, 566.685322)"><image x="0" y="0" width="5000" height="1890" preserveAspectRatio="xMidYMid meet"></image></g></g></g></g></g></g><g clip-path="url(#b497c65a3c)"><g clip-path="url(#1e339f29f0)"><g clip-path="url(#130f6d3419)"><path fill="#8338ec" d="M 1424.539062 275.734375 L 1195.40625 358.722656 C 1182.515625 363.390625 1168.226562 356.703125 1163.558594 343.8125 L 1108.136719 190.78125 C 1103.464844 177.890625 1110.15625 163.605469 1123.046875 158.933594 L 1352.179688 75.949219 C 1365.078125 71.277344 1379.363281 77.96875 1384.03125 90.859375 L 1439.457031 243.886719 C 1444.125 256.777344 1437.433594 271.066406 1424.539062 275.734375 Z M 1126.492188 168.449219 C 1118.847656 171.21875 1114.878906 179.691406 1117.648438 187.335938 L 1173.074219 340.363281 C 1175.839844 348.007812 1184.316406 351.976562 1191.960938 349.210938 L 1421.09375 266.222656 C 1428.742188 263.453125 1432.710938 254.976562 1429.941406 247.332031 L 1374.519531 94.304688 C 1371.75 86.660156 1363.273438 82.691406 1355.625 85.460938 Z M 1126.492188 168.449219 " fill-opacity="1" fill-rule="nonzero"></path></g></g></g><g clip-path="url(#bbdf683f16)"><g clip-path="url(#4a05b368f0)"><g clip-path="url(#3dc1b682ac)"><path fill="#8338ec" d="M 1369.679688 274.082031 L 1184.164062 341.273438 C 1181.535156 342.222656 1178.636719 340.867188 1177.683594 338.238281 L 1120.828125 181.261719 C 1119.875 178.632812 1121.238281 175.734375 1123.863281 174.78125 L 1309.382812 107.589844 C 1312.007812 106.640625 1314.90625 107.996094 1315.859375 110.625 L 1372.714844 267.601562 C 1373.667969 270.234375 1372.304688 273.128906 1369.679688 274.082031 Z M 1185.472656 330.035156 L 1361.476562 266.289062 L 1308.070312 118.828125 L 1132.066406 182.574219 Z M 1185.472656 330.035156 " fill-opacity="1" fill-rule="nonzero"></path></g></g></g><g clip-path="url(#d97e33e43e)"><g clip-path="url(#fd4b66cd87)"><g clip-path="url(#6eeca4b53a)"><path fill="#8338ec" d="M 1361.628906 147.855469 C 1351.136719 151.65625 1339.511719 146.214844 1335.710938 135.722656 C 1331.910156 125.226562 1337.355469 113.601562 1347.847656 109.800781 C 1358.339844 106 1369.964844 111.445312 1373.765625 121.9375 C 1377.566406 132.433594 1372.125 144.058594 1361.628906 147.855469 Z M 1351.292969 119.316406 C 1346.046875 121.214844 1343.324219 127.027344 1345.226562 132.277344 C 1347.125 137.523438 1352.9375 140.242188 1358.183594 138.34375 C 1363.429688 136.441406 1366.152344 130.632812 1364.253906 125.382812 C 1362.351562 120.136719 1356.539062 117.414062 1351.292969 119.316406 Z M 1351.292969 119.316406 " fill-opacity="1" fill-rule="nonzero"></path></g></g></g><g clip-path="url(#ac9d39ec1c)"><g clip-path="url(#1ce1b08af0)"><g clip-path="url(#21873ddfc0)"><path fill="#8338ec" d="M 1382.304688 204.941406 C 1371.808594 208.738281 1360.1875 203.296875 1356.386719 192.804688 C 1352.585938 182.308594 1358.027344 170.683594 1368.519531 166.882812 C 1379.015625 163.085938 1390.640625 168.527344 1394.441406 179.019531 C 1398.242188 189.515625 1392.796875 201.140625 1382.304688 204.941406 Z M 1371.96875 176.398438 C 1366.71875 178.296875 1364 184.109375 1365.898438 189.359375 C 1367.800781 194.605469 1373.613281 197.328125 1378.859375 195.425781 C 1384.105469 193.527344 1386.828125 187.714844 1384.925781 182.464844 C 1383.027344 177.21875 1377.214844 174.5 1371.96875 176.398438 Z M 1371.96875 176.398438 " fill-opacity="1" fill-rule="nonzero"></path></g></g></g><g clip-path="url(#fd2dcf364e)"><g clip-path="url(#80d9160c7e)"><g clip-path="url(#8aae0d3abf)"><path fill="#8338ec" d="M 1241.0625 126.953125 C 1239.6875 127.453125 1238.171875 127.335938 1236.894531 126.625 L 1142.734375 74.632812 C 1140.289062 73.285156 1139.398438 70.207031 1140.75 67.757812 C 1142.105469 65.308594 1145.171875 64.425781 1147.625 65.78125 L 1236.722656 114.972656 L 1273.65625 20.128906 C 1274.675781 17.515625 1277.601562 16.234375 1280.207031 17.246094 C 1282.8125 18.261719 1284.101562 21.195312 1283.082031 23.796875 L 1244.054688 124.027344 C 1243.523438 125.394531 1242.4375 126.457031 1241.0625 126.953125 Z M 1241.0625 126.953125 " fill-opacity="1" fill-rule="nonzero"></path></g></g></g><g clip-path="url(#4543ed921e)"><g clip-path="url(#60cd08699e)"><g clip-path="url(#fc2ba60193)"><path fill="#8338ec" d="M 1364.367188 455.90625 L 1018.519531 536.703125 C 1018.128906 536.792969 1017.75 536.921875 1017.382812 537.089844 C 1017.015625 537.253906 1016.667969 537.453125 1016.34375 537.6875 C 1016.015625 537.921875 1015.714844 538.1875 1015.441406 538.480469 C 1015.167969 538.773438 1014.921875 539.09375 1014.710938 539.433594 C 1014.5 539.777344 1014.320312 540.132812 1014.179688 540.511719 C 1014.039062 540.886719 1013.933594 541.273438 1013.871094 541.671875 C 1013.804688 542.066406 1013.777344 542.464844 1013.792969 542.867188 C 1013.804688 543.269531 1013.859375 543.667969 1013.949219 544.058594 L 1064.097656 758.722656 C 1064.191406 759.113281 1064.320312 759.492188 1064.484375 759.859375 C 1064.652344 760.222656 1064.851562 760.570312 1065.085938 760.898438 C 1065.320312 761.222656 1065.585938 761.523438 1065.878906 761.800781 C 1066.171875 762.074219 1066.488281 762.316406 1066.832031 762.53125 C 1067.171875 762.742188 1067.53125 762.917969 1067.90625 763.0625 C 1068.285156 763.203125 1068.671875 763.304688 1069.066406 763.371094 C 1069.464844 763.4375 1069.863281 763.460938 1070.265625 763.449219 C 1070.667969 763.4375 1071.0625 763.382812 1071.453125 763.292969 L 1101.269531 756.328125 L 1104.054688 768.253906 L 1092.128906 771.039062 L 1094.914062 782.964844 L 1130.691406 774.605469 L 1127.90625 762.679688 L 1115.980469 765.464844 L 1113.195312 753.539062 L 1256.304688 720.105469 L 1253.519531 708.179688 L 1074.632812 749.972656 L 1027.269531 547.234375 L 1361.1875 469.226562 L 1408.550781 671.960938 L 1360.847656 683.105469 L 1363.636719 695.03125 L 1375.5625 692.246094 L 1378.347656 704.171875 L 1366.421875 706.957031 L 1369.207031 718.882812 L 1404.984375 710.527344 L 1402.199219 698.601562 L 1390.273438 701.386719 L 1387.488281 689.460938 L 1417.300781 682.496094 C 1417.691406 682.402344 1418.070312 682.273438 1418.4375 682.109375 C 1418.804688 681.941406 1419.152344 681.742188 1419.476562 681.507812 C 1419.804688 681.273438 1420.105469 681.011719 1420.378906 680.714844 C 1420.652344 680.421875 1420.898438 680.105469 1421.109375 679.765625 C 1421.320312 679.421875 1421.5 679.0625 1421.640625 678.6875 C 1421.78125 678.308594 1421.886719 677.925781 1421.949219 677.527344 C 1422.015625 677.128906 1422.042969 676.730469 1422.027344 676.328125 C 1422.015625 675.925781 1421.960938 675.53125 1421.871094 675.140625 L 1371.722656 460.476562 C 1371.628906 460.085938 1371.5 459.707031 1371.335938 459.339844 C 1371.167969 458.972656 1370.96875 458.625 1370.734375 458.300781 C 1370.5 457.972656 1370.238281 457.671875 1369.941406 457.398438 C 1369.648438 457.121094 1369.332031 456.878906 1368.992188 456.667969 C 1368.648438 456.457031 1368.289062 456.277344 1367.914062 456.136719 C 1367.535156 455.996094 1367.152344 455.890625 1366.753906 455.828125 C 1366.355469 455.761719 1365.957031 455.734375 1365.554688 455.75 C 1365.152344 455.761719 1364.757812 455.8125 1364.367188 455.90625 Z M 1364.367188 455.90625 " fill-opacity="1" fill-rule="nonzero"></path></g></g></g><g clip-path="url(#63e157d546)"><g clip-path="url(#c555d101dd)"><g clip-path="url(#f23f860d4b)"><path fill="#8338ec" d="M 1255.691406 663.65625 L 1283.554688 782.914062 C 1283.644531 783.304688 1283.773438 783.683594 1283.9375 784.050781 C 1284.105469 784.414062 1284.304688 784.761719 1284.539062 785.089844 C 1284.773438 785.414062 1285.039062 785.714844 1285.332031 785.992188 C 1285.625 786.265625 1285.941406 786.507812 1286.285156 786.722656 C 1286.625 786.933594 1286.984375 787.109375 1287.363281 787.25 C 1287.738281 787.394531 1288.125 787.496094 1288.519531 787.5625 C 1288.917969 787.628906 1289.316406 787.652344 1289.71875 787.640625 C 1290.121094 787.625 1290.515625 787.574219 1290.910156 787.484375 L 1362.464844 770.765625 C 1362.855469 770.675781 1363.234375 770.546875 1363.601562 770.378906 C 1363.964844 770.214844 1364.3125 770.011719 1364.640625 769.777344 C 1364.964844 769.542969 1365.265625 769.28125 1365.542969 768.988281 C 1365.816406 768.695312 1366.058594 768.375 1366.273438 768.035156 C 1366.484375 767.691406 1366.660156 767.335938 1366.800781 766.957031 C 1366.945312 766.582031 1367.046875 766.195312 1367.113281 765.796875 C 1367.179688 765.402344 1367.203125 765.003906 1367.191406 764.601562 C 1367.175781 764.199219 1367.125 763.800781 1367.035156 763.410156 L 1339.171875 644.152344 C 1339.082031 643.761719 1338.953125 643.382812 1338.785156 643.015625 C 1338.621094 642.648438 1338.417969 642.304688 1338.183594 641.976562 C 1337.949219 641.648438 1337.6875 641.347656 1337.394531 641.074219 C 1337.101562 640.800781 1336.78125 640.554688 1336.441406 640.34375 C 1336.097656 640.132812 1335.742188 639.957031 1335.363281 639.8125 C 1334.988281 639.671875 1334.601562 639.570312 1334.203125 639.503906 C 1333.808594 639.4375 1333.410156 639.414062 1333.007812 639.425781 C 1332.605469 639.4375 1332.207031 639.492188 1331.816406 639.582031 L 1260.261719 656.300781 C 1259.871094 656.390625 1259.492188 656.519531 1259.125 656.6875 C 1258.757812 656.851562 1258.414062 657.050781 1258.085938 657.285156 C 1257.757812 657.519531 1257.457031 657.785156 1257.183594 658.078125 C 1256.910156 658.371094 1256.664062 658.691406 1256.453125 659.03125 C 1256.242188 659.371094 1256.066406 659.730469 1255.921875 660.109375 C 1255.78125 660.484375 1255.679688 660.871094 1255.613281 661.265625 C 1255.546875 661.664062 1255.523438 662.0625 1255.535156 662.464844 C 1255.546875 662.867188 1255.601562 663.265625 1255.691406 663.65625 Z M 1269.011719 666.832031 L 1328.640625 652.902344 L 1353.714844 760.234375 L 1294.085938 774.164062 Z M 1269.011719 666.832031 " fill-opacity="1" fill-rule="nonzero"></path></g></g></g><g clip-path="url(#c091bd299d)"><g clip-path="url(#1560c6ed80)"><g clip-path="url(#9e116df613)"><path fill="#8338ec" d="M 1283.722656 675.972656 L 1295.648438 673.1875 L 1298.433594 685.113281 L 1286.507812 687.898438 Z M 1283.722656 675.972656 " fill-opacity="1" fill-rule="nonzero"></path></g></g></g><g clip-path="url(#9bf0532041)"><g clip-path="url(#00a8e67951)"><g clip-path="url(#dffc23e6cd)"><path fill="#8338ec" d="M 1289.296875 699.824219 L 1301.222656 697.039062 L 1304.007812 708.964844 L 1292.082031 711.75 Z M 1289.296875 699.824219 " fill-opacity="1" fill-rule="nonzero"></path></g></g></g><g clip-path="url(#064d6d60f9)"><g clip-path="url(#85cc37d787)"><g clip-path="url(#11445d8979)"><path fill="#8338ec" d="M 1294.867188 723.675781 L 1306.792969 720.890625 L 1309.578125 732.816406 L 1297.652344 735.601562 Z M 1294.867188 723.675781 " fill-opacity="1" fill-rule="nonzero"></path></g></g></g><g clip-path="url(#0ad118851e)"><g clip-path="url(#b792bdff37)"><g clip-path="url(#3c3b3cbc30)"><path fill="#8338ec" d="M 1318.71875 718.101562 L 1330.644531 715.316406 L 1333.429688 727.242188 L 1321.503906 730.027344 Z M 1318.71875 718.101562 " fill-opacity="1" fill-rule="nonzero"></path></g></g></g><g clip-path="url(#96f86448bd)"><g clip-path="url(#a7746509f0)"><g clip-path="url(#43db259167)"><path fill="#8338ec" d="M 1300.4375 747.527344 L 1312.363281 744.742188 L 1315.152344 756.667969 L 1303.226562 759.453125 Z M 1300.4375 747.527344 " fill-opacity="1" fill-rule="nonzero"></path></g></g></g><g clip-path="url(#767a738cbc)"><g clip-path="url(#fe77177437)"><g clip-path="url(#15f9e8f851)"><path fill="#8338ec" d="M 1324.289062 741.953125 L 1336.214844 739.167969 L 1339.003906 751.09375 L 1327.078125 753.878906 Z M 1324.289062 741.953125 " fill-opacity="1" fill-rule="nonzero"></path></g></g></g><g clip-path="url(#b92f63493f)"><g clip-path="url(#9db13c4fc8)"><g clip-path="url(#5b77f810c0)"><path fill="#8338ec" d="M 1313.148438 694.25 L 1325.074219 691.464844 L 1327.859375 703.390625 L 1315.933594 706.175781 Z M 1313.148438 694.25 " fill-opacity="1" fill-rule="nonzero"></path></g></g></g><g clip-path="url(#3ab76347f5)"><g clip-path="url(#3af8945bee)"><g clip-path="url(#0b969a5de4)"><path fill="#8338ec" d="M 1256.082031 638.410156 L 1253.296875 626.484375 C 1252.125 626.757812 1250.96875 627.089844 1249.832031 627.476562 C 1248.691406 627.863281 1247.574219 628.304688 1246.476562 628.804688 C 1245.382812 629.300781 1244.3125 629.851562 1243.269531 630.453125 C 1242.230469 631.054688 1241.21875 631.707031 1240.242188 632.40625 C 1239.265625 633.109375 1238.324219 633.855469 1237.417969 634.648438 C 1236.515625 635.445312 1235.652344 636.28125 1234.828125 637.160156 C 1234.007812 638.035156 1233.230469 638.953125 1232.496094 639.910156 C 1231.765625 640.863281 1231.082031 641.851562 1230.445312 642.875 C 1229.8125 643.894531 1229.226562 644.945312 1228.695312 646.027344 C 1228.164062 647.105469 1227.6875 648.207031 1227.265625 649.335938 C 1226.839844 650.460938 1226.472656 651.605469 1226.164062 652.769531 C 1225.851562 653.929688 1225.597656 655.105469 1225.402344 656.292969 C 1225.207031 657.480469 1225.070312 658.675781 1224.992188 659.875 C 1224.914062 661.074219 1224.894531 662.277344 1224.933594 663.480469 C 1224.972656 664.683594 1225.074219 665.878906 1225.230469 667.074219 C 1225.386719 668.265625 1225.605469 669.449219 1225.878906 670.621094 L 1237.804688 667.835938 C 1237.621094 667.054688 1237.476562 666.265625 1237.371094 665.46875 C 1237.265625 664.675781 1237.203125 663.875 1237.175781 663.074219 C 1237.148438 662.273438 1237.160156 661.472656 1237.214844 660.671875 C 1237.265625 659.871094 1237.355469 659.074219 1237.488281 658.28125 C 1237.617188 657.492188 1237.785156 656.707031 1237.992188 655.933594 C 1238.199219 655.15625 1238.445312 654.394531 1238.726562 653.644531 C 1239.011719 652.894531 1239.328125 652.15625 1239.683594 651.4375 C 1240.039062 650.71875 1240.425781 650.019531 1240.847656 649.335938 C 1241.273438 648.65625 1241.726562 647.996094 1242.214844 647.359375 C 1242.703125 646.722656 1243.222656 646.113281 1243.769531 645.527344 C 1244.320312 644.941406 1244.894531 644.382812 1245.496094 643.855469 C 1246.101562 643.324219 1246.726562 642.828125 1247.378906 642.359375 C 1248.03125 641.890625 1248.703125 641.457031 1249.398438 641.054688 C 1250.09375 640.652344 1250.804688 640.289062 1251.535156 639.957031 C 1252.265625 639.625 1253.011719 639.328125 1253.773438 639.070312 C 1254.53125 638.8125 1255.300781 638.59375 1256.082031 638.410156 Z M 1256.082031 638.410156 " fill-opacity="1" fill-rule="nonzero"></path></g></g></g><g clip-path="url(#a8af5b0c0c)"><g clip-path="url(#b196d2a766)"><g clip-path="url(#5e0353c161)"><path fill="#8338ec" d="M 1250.511719 614.558594 L 1247.726562 602.632812 C 1245.773438 603.089844 1243.847656 603.640625 1241.945312 604.285156 C 1240.046875 604.929688 1238.1875 605.667969 1236.359375 606.496094 C 1234.53125 607.324219 1232.75 608.242188 1231.015625 609.246094 C 1229.277344 610.25 1227.597656 611.335938 1225.964844 612.503906 C 1224.335938 613.671875 1222.769531 614.917969 1221.261719 616.242188 C 1219.753906 617.5625 1218.316406 618.957031 1216.945312 620.421875 C 1215.574219 621.886719 1214.277344 623.414062 1213.058594 625.007812 C 1211.839844 626.597656 1210.699219 628.246094 1209.640625 629.949219 C 1208.582031 631.652344 1207.609375 633.402344 1206.722656 635.203125 C 1205.835938 637 1205.042969 638.839844 1204.335938 640.71875 C 1203.628906 642.59375 1203.019531 644.5 1202.5 646.4375 C 1201.980469 648.375 1201.558594 650.335938 1201.234375 652.3125 C 1200.910156 654.292969 1200.679688 656.28125 1200.550781 658.285156 C 1200.417969 660.285156 1200.386719 662.289062 1200.453125 664.292969 C 1200.519531 666.296875 1200.683594 668.292969 1200.949219 670.28125 C 1201.210938 672.269531 1201.570312 674.238281 1202.027344 676.191406 L 1213.953125 673.40625 C 1213.585938 671.84375 1213.300781 670.269531 1213.089844 668.675781 C 1212.878906 667.085938 1212.746094 665.488281 1212.695312 663.886719 C 1212.640625 662.28125 1212.667969 660.679688 1212.769531 659.078125 C 1212.875 657.476562 1213.058594 655.886719 1213.320312 654.304688 C 1213.578125 652.71875 1213.917969 651.152344 1214.332031 649.605469 C 1214.746094 648.054688 1215.234375 646.527344 1215.800781 645.027344 C 1216.363281 643.523438 1217 642.054688 1217.710938 640.613281 C 1218.417969 639.175781 1219.195312 637.773438 1220.042969 636.410156 C 1220.890625 635.046875 1221.800781 633.730469 1222.777344 632.457031 C 1223.753906 631.183594 1224.789062 629.960938 1225.886719 628.789062 C 1226.984375 627.617188 1228.132812 626.503906 1229.339844 625.445312 C 1230.546875 624.386719 1231.800781 623.390625 1233.105469 622.457031 C 1234.40625 621.519531 1235.753906 620.652344 1237.144531 619.847656 C 1238.53125 619.046875 1239.957031 618.3125 1241.417969 617.648438 C 1242.878906 616.988281 1244.371094 616.398438 1245.890625 615.882812 C 1247.40625 615.363281 1248.949219 614.925781 1250.511719 614.558594 Z M 1250.511719 614.558594 " fill-opacity="1" fill-rule="nonzero"></path></g></g></g><g clip-path="url(#aa8cbf66c7)"><g clip-path="url(#7006360b4b)"><g clip-path="url(#2fdb29c60a)"><path fill="#8338ec" d="M 1178.175781 681.765625 L 1190.101562 678.980469 C 1189.828125 677.808594 1189.582031 676.628906 1189.367188 675.449219 C 1189.152344 674.265625 1188.964844 673.078125 1188.804688 671.886719 C 1188.648438 670.691406 1188.519531 669.496094 1188.421875 668.296875 C 1188.324219 667.101562 1188.253906 665.898438 1188.214844 664.699219 C 1188.175781 663.496094 1188.164062 662.292969 1188.183594 661.089844 C 1188.203125 659.890625 1188.25 658.6875 1188.328125 657.488281 C 1188.40625 656.289062 1188.515625 655.089844 1188.652344 653.894531 C 1188.789062 652.699219 1188.953125 651.511719 1189.148438 650.324219 C 1189.34375 649.136719 1189.570312 647.957031 1189.824219 646.78125 C 1190.078125 645.605469 1190.359375 644.4375 1190.667969 643.273438 C 1190.980469 642.113281 1191.320312 640.960938 1191.6875 639.8125 C 1192.054688 638.667969 1192.449219 637.535156 1192.871094 636.40625 C 1193.296875 635.28125 1193.746094 634.167969 1194.222656 633.0625 C 1194.703125 631.960938 1195.207031 630.871094 1195.738281 629.789062 C 1196.269531 628.710938 1196.828125 627.648438 1197.410156 626.59375 C 1197.996094 625.542969 1198.601562 624.507812 1199.238281 623.484375 C 1199.871094 622.464844 1200.53125 621.460938 1201.214844 620.46875 C 1201.898438 619.480469 1202.609375 618.507812 1203.339844 617.554688 C 1204.070312 616.601562 1204.824219 615.664062 1205.601562 614.746094 C 1206.382812 613.828125 1207.179688 612.933594 1208.003906 612.054688 C 1208.824219 611.175781 1209.667969 610.320312 1210.53125 609.480469 C 1211.394531 608.644531 1212.277344 607.832031 1213.183594 607.035156 C 1214.085938 606.242188 1215.007812 605.472656 1215.949219 604.726562 C 1216.890625 603.976562 1217.851562 603.253906 1218.828125 602.550781 C 1219.804688 601.851562 1220.800781 601.175781 1221.808594 600.523438 C 1222.820312 599.871094 1223.847656 599.242188 1224.886719 598.640625 C 1225.929688 598.039062 1226.984375 597.464844 1228.054688 596.914062 C 1229.121094 596.363281 1230.203125 595.839844 1231.300781 595.34375 C 1232.394531 594.847656 1233.503906 594.378906 1234.621094 593.933594 C 1235.738281 593.492188 1236.867188 593.078125 1238.003906 592.691406 C 1239.144531 592.304688 1240.292969 591.945312 1241.449219 591.613281 C 1242.605469 591.285156 1243.765625 590.980469 1244.9375 590.707031 L 1242.152344 578.78125 C 1240.785156 579.101562 1239.429688 579.453125 1238.078125 579.839844 C 1236.730469 580.226562 1235.390625 580.644531 1234.0625 581.09375 C 1232.734375 581.546875 1231.417969 582.03125 1230.113281 582.546875 C 1228.808594 583.0625 1227.519531 583.609375 1226.242188 584.191406 C 1224.964844 584.769531 1223.699219 585.382812 1222.453125 586.023438 C 1221.207031 586.664062 1219.972656 587.335938 1218.757812 588.039062 C 1217.542969 588.738281 1216.347656 589.472656 1215.167969 590.230469 C 1213.988281 590.992188 1212.832031 591.78125 1211.691406 592.601562 C 1210.550781 593.417969 1209.429688 594.261719 1208.332031 595.136719 C 1207.234375 596.007812 1206.15625 596.90625 1205.101562 597.832031 C 1204.046875 598.757812 1203.015625 599.710938 1202.007812 600.683594 C 1201.003906 601.660156 1200.019531 602.660156 1199.058594 603.6875 C 1198.101562 604.710938 1197.167969 605.757812 1196.261719 606.828125 C 1195.355469 607.898438 1194.472656 608.988281 1193.621094 610.105469 C 1192.765625 611.21875 1191.941406 612.351562 1191.144531 613.503906 C 1190.34375 614.660156 1189.574219 615.832031 1188.835938 617.023438 C 1188.09375 618.214844 1187.382812 619.425781 1186.703125 620.652344 C 1186.023438 621.878906 1185.371094 623.121094 1184.75 624.378906 C 1184.132812 625.636719 1183.542969 626.910156 1182.984375 628.199219 C 1182.429688 629.484375 1181.902344 630.785156 1181.410156 632.097656 C 1180.914062 633.414062 1180.453125 634.738281 1180.023438 636.074219 C 1179.597656 637.410156 1179.199219 638.753906 1178.839844 640.109375 C 1178.476562 641.464844 1178.148438 642.828125 1177.851562 644.199219 C 1177.554688 645.570312 1177.292969 646.949219 1177.066406 648.332031 C 1176.839844 649.71875 1176.644531 651.105469 1176.484375 652.5 C 1176.324219 653.894531 1176.199219 655.292969 1176.109375 656.691406 C 1176.015625 658.09375 1175.960938 659.492188 1175.9375 660.894531 C 1175.914062 662.300781 1175.925781 663.703125 1175.972656 665.105469 C 1176.019531 666.507812 1176.101562 667.90625 1176.214844 669.304688 C 1176.332031 670.703125 1176.480469 672.097656 1176.664062 673.488281 C 1176.847656 674.878906 1177.066406 676.265625 1177.320312 677.644531 C 1177.570312 679.027344 1177.855469 680.398438 1178.175781 681.765625 Z M 1178.175781 681.765625 " fill-opacity="1" fill-rule="nonzero"></path></g></g></g><g clip-path="url(#c27c3d7e40)"><g clip-path="url(#32b4d41dce)"><g clip-path="url(#29a13f9376)"><path fill="#8338ec" d="M 1080.984375 723.335938 L 1092.910156 720.550781 L 1095.695312 732.476562 L 1083.769531 735.261719 Z M 1080.984375 723.335938 " fill-opacity="1" fill-rule="nonzero"></path></g></g></g><g clip-path="url(#50b6bfb590)"><g clip-path="url(#31795bdbc7)"><g clip-path="url(#2ead944d83)"><path fill="#8338ec" d="M 1104.835938 717.761719 L 1116.761719 714.976562 L 1119.546875 726.902344 L 1107.621094 729.6875 Z M 1104.835938 717.761719 " fill-opacity="1" fill-rule="nonzero"></path></g></g></g><g clip-path="url(#c9ec45d062)"><g clip-path="url(#6490275f8f)"><g clip-path="url(#27d7ff0ca8)"><path fill="#8338ec" d="M 1128.6875 712.191406 L 1140.613281 709.40625 L 1143.398438 721.332031 L 1131.472656 724.117188 Z M 1128.6875 712.191406 " fill-opacity="1" fill-rule="nonzero"></path></g></g></g><g clip-path="url(#7d20789053)"><g clip-path="url(#b65c9f6e8d)"><g clip-path="url(#7b5004ab2d)"><path fill="#8338ec" d="M 1086.320312 34.492188 L 1018.988281 20.828125 C 1014.648438 19.945312 1010.34375 20.917969 1006.910156 23.195312 C 1003.472656 25.472656 1000.898438 29.054688 1000.019531 33.398438 L 972.777344 167.632812 C 971.894531 171.972656 972.871094 176.277344 975.144531 179.710938 C 977.421875 183.148438 981.003906 185.722656 985.347656 186.601562 L 1052.679688 200.265625 C 1057.019531 201.148438 1061.320312 200.175781 1064.757812 197.898438 C 1068.195312 195.621094 1070.769531 192.039062 1071.648438 187.699219 L 1098.890625 53.460938 C 1099.769531 49.121094 1098.796875 44.816406 1096.519531 41.382812 C 1094.242188 37.945312 1090.660156 35.371094 1086.320312 34.492188 Z M 1015.675781 176.839844 L 1028.554688 179.453125 C 1030.714844 179.890625 1032.121094 182.015625 1031.683594 184.171875 C 1031.246094 186.332031 1029.121094 187.742188 1026.960938 187.304688 L 1014.082031 184.6875 C 1011.921875 184.25 1010.515625 182.125 1010.953125 179.96875 C 1011.390625 177.808594 1013.515625 176.398438 1015.675781 176.839844 Z M 1035.058594 33.203125 C 1036.492188 33.496094 1037.417969 34.890625 1037.125 36.324219 C 1036.835938 37.753906 1035.441406 38.679688 1034.007812 38.386719 C 1032.578125 38.097656 1031.652344 36.703125 1031.941406 35.269531 C 1032.234375 33.839844 1033.628906 32.914062 1035.058594 33.203125 Z M 1065.640625 44.808594 C 1067.074219 45.097656 1068.46875 44.171875 1068.757812 42.742188 C 1069.050781 41.3125 1068.125 39.914062 1066.695312 39.625 L 1042.929688 34.800781 C 1041.5 34.511719 1040.101562 35.4375 1039.8125 36.867188 C 1039.523438 38.300781 1040.445312 39.695312 1041.878906 39.984375 Z M 1006.265625 42.496094 L 1089.589844 59.402344 L 1065.285156 179.160156 L 981.964844 162.25 L 1006.265625 42.496094 " fill-opacity="1" fill-rule="evenodd"></path></g></g></g></svg>